<mxfile host="65bd71144e">
    <diagram id="kUpM4IrQdAOPcjrNj8HV" name="Page-1">
        <mxGraphModel dx="469" dy="586" grid="1" gridSize="10" guides="1" tooltips="1" connect="1" arrows="1" fold="1" page="0" pageScale="1" pageWidth="827" pageHeight="1169" math="0" shadow="0">
            <root>
                <mxCell id="0"/>
                <mxCell id="1" parent="0"/>
                <mxCell id="3" value="getDriverDetails(int&amp;amp; driverCount,&lt;br&gt;string driverName[], int driverAge[],&lt;br&gt;char license[]" style="strokeWidth=2;html=1;shape=mxgraph.flowchart.terminator;whiteSpace=wrap;fillColor=#d80073;strokeColor=#A50040;shadow=1;fontColor=#ffffff;textShadow=1;spacing=2;" vertex="1" parent="1">
                    <mxGeometry x="50" y="110" width="216.66" height="130" as="geometry"/>
                </mxCell>
                <mxCell id="4" value="i = 0,&lt;br&gt;i &amp;lt; driverCount,&lt;br&gt;i++" style="rhombus;whiteSpace=wrap;html=1;strokeWidth=2;fillColor=#6a00ff;fontColor=#ffffff;strokeColor=#3700CC;" vertex="1" parent="1">
                    <mxGeometry x="103.33" y="290" width="110" height="110" as="geometry"/>
                </mxCell>
                <mxCell id="5" value="" style="edgeStyle=none;html=1;strokeWidth=2;shadow=1;textShadow=1;spacing=2;entryX=0.5;entryY=0;entryDx=0;entryDy=0;exitX=0.5;exitY=1;exitDx=0;exitDy=0;exitPerimeter=0;" edge="1" parent="1" source="3" target="4">
                    <mxGeometry relative="1" as="geometry">
                        <mxPoint x="157.83" y="240" as="sourcePoint"/>
                        <mxPoint x="157.83" y="290" as="targetPoint"/>
                    </mxGeometry>
                </mxCell>
                <mxCell id="6" value="" style="endArrow=classic;html=1;exitX=1;exitY=0.5;exitDx=0;exitDy=0;entryX=0;entryY=0.5;entryDx=0;entryDy=0;" edge="1" parent="1" source="4" target="10">
                    <mxGeometry relative="1" as="geometry">
                        <mxPoint x="213.32999999999998" y="314.26" as="sourcePoint"/>
                        <mxPoint x="313.33" y="314.26" as="targetPoint"/>
                    </mxGeometry>
                </mxCell>
                <mxCell id="7" value="True" style="edgeLabel;resizable=0;html=1;;align=center;verticalAlign=middle;" connectable="0" vertex="1" parent="6">
                    <mxGeometry relative="1" as="geometry">
                        <mxPoint x="-7" as="offset"/>
                    </mxGeometry>
                </mxCell>
                <mxCell id="8" value="" style="endArrow=classic;html=1;entryX=0.5;entryY=0;entryDx=0;entryDy=0;entryPerimeter=0;exitX=0.5;exitY=1;exitDx=0;exitDy=0;strokeWidth=2;" edge="1" parent="1" source="4" target="47">
                    <mxGeometry relative="1" as="geometry">
                        <mxPoint x="40" y="450" as="sourcePoint"/>
                        <mxPoint x="140" y="450" as="targetPoint"/>
                    </mxGeometry>
                </mxCell>
                <mxCell id="9" value="False" style="edgeLabel;resizable=0;html=1;;align=center;verticalAlign=middle;" connectable="0" vertex="1" parent="8">
                    <mxGeometry relative="1" as="geometry"/>
                </mxCell>
                <mxCell id="40" value="" style="edgeStyle=none;html=1;strokeWidth=2;" edge="1" parent="1" source="10" target="31">
                    <mxGeometry relative="1" as="geometry"/>
                </mxCell>
                <mxCell id="10" value="Prompt:&lt;br&gt;&quot;Driver #&quot;, (i+1) &quot;Name: &quot;" style="shape=parallelogram;perimeter=parallelogramPerimeter;whiteSpace=wrap;html=1;fixedSize=1;strokeWidth=2;fillColor=#008a00;fontColor=#ffffff;strokeColor=#005700;" vertex="1" parent="1">
                    <mxGeometry x="250.00000000000003" y="315" width="170" height="60" as="geometry"/>
                </mxCell>
                <mxCell id="38" value="" style="edgeStyle=none;html=1;strokeWidth=2;" edge="1" parent="1" source="21" target="24">
                    <mxGeometry relative="1" as="geometry"/>
                </mxCell>
                <mxCell id="21" value="Input:&lt;br&gt;driverAge[i]" style="shape=parallelogram;perimeter=parallelogramPerimeter;whiteSpace=wrap;html=1;fixedSize=1;strokeWidth=2;fillColor=#e3c800;fontColor=#FFFFFF;strokeColor=#B09500;" vertex="1" parent="1">
                    <mxGeometry x="635" y="410" width="120" height="60" as="geometry"/>
                </mxCell>
                <mxCell id="36" value="" style="edgeStyle=none;html=1;strokeWidth=2;" edge="1" parent="1" source="24" target="28">
                    <mxGeometry relative="1" as="geometry"/>
                </mxCell>
                <mxCell id="24" value="Prompt:&lt;br&gt;&quot;Does driver #&quot;, (i+1)&lt;br&gt;&quot;has a license? (Y/N): &quot;" style="shape=parallelogram;perimeter=parallelogramPerimeter;whiteSpace=wrap;html=1;fixedSize=1;strokeWidth=2;fillColor=#008a00;fontColor=#ffffff;strokeColor=#005700;" vertex="1" parent="1">
                    <mxGeometry x="435" y="410" width="170" height="60" as="geometry"/>
                </mxCell>
                <mxCell id="44" value="" style="edgeStyle=none;html=1;entryX=1;entryY=1;entryDx=0;entryDy=0;rounded=0;curved=0;strokeWidth=2;" edge="1" parent="1" source="28" target="4">
                    <mxGeometry relative="1" as="geometry">
                        <mxPoint x="190" y="380" as="targetPoint"/>
                        <Array as="points">
                            <mxPoint x="186" y="440"/>
                        </Array>
                    </mxGeometry>
                </mxCell>
                <mxCell id="28" value="license[i] = getValidCharacterInput()" style="whiteSpace=wrap;html=1;strokeWidth=2;fillColor=#fa6800;fontColor=#FFFFFF;strokeColor=#C73500;" vertex="1" parent="1">
                    <mxGeometry x="250" y="410" width="160" height="60" as="geometry"/>
                </mxCell>
                <mxCell id="31" value="Input:&lt;br&gt;driverName[i]" style="shape=parallelogram;perimeter=parallelogramPerimeter;whiteSpace=wrap;html=1;fixedSize=1;strokeWidth=2;fillColor=#e3c800;fontColor=light-dark(#ffffff, #ededed);strokeColor=#B09500;" vertex="1" parent="1">
                    <mxGeometry x="440" y="315" width="160" height="60" as="geometry"/>
                </mxCell>
                <mxCell id="39" value="" style="edgeStyle=none;html=1;strokeWidth=2;" edge="1" parent="1" source="33" target="21">
                    <mxGeometry relative="1" as="geometry"/>
                </mxCell>
                <mxCell id="33" value="Prompt:&lt;br&gt;&quot;Driver #&quot;, (i+1) &quot;Age: &quot;" style="shape=parallelogram;perimeter=parallelogramPerimeter;whiteSpace=wrap;html=1;fixedSize=1;strokeWidth=2;fillColor=#008a00;fontColor=#ffffff;strokeColor=#005700;" vertex="1" parent="1">
                    <mxGeometry x="610" y="315" width="170" height="60" as="geometry"/>
                </mxCell>
                <mxCell id="41" value="" style="edgeStyle=none;orthogonalLoop=1;jettySize=auto;html=1;exitX=1;exitY=0.5;exitDx=0;exitDy=0;entryX=0;entryY=0.5;entryDx=0;entryDy=0;strokeWidth=2;" edge="1" parent="1" source="31" target="33">
                    <mxGeometry width="100" relative="1" as="geometry">
                        <mxPoint x="550" y="350" as="sourcePoint"/>
                        <mxPoint x="650" y="350" as="targetPoint"/>
                        <Array as="points"/>
                    </mxGeometry>
                </mxCell>
                <mxCell id="47" value="End" style="strokeWidth=2;html=1;shape=mxgraph.flowchart.terminator;whiteSpace=wrap;fillColor=#d80073;strokeColor=#A50040;shadow=1;fontColor=#ffffff;textShadow=1;spacing=2;" vertex="1" parent="1">
                    <mxGeometry x="50" y="490" width="216.66" height="130" as="geometry"/>
                </mxCell>
            </root>
        </mxGraphModel>
    </diagram>
</mxfile>